<?xml version="1.0" encoding="UTF-8"?>
<!DOCTYPE svg PUBLIC "-//W3C//DTD SVG 1.1//EN" "http://www.w3.org/Graphics/SVG/1.1/DTD/svg11.dtd">
<!-- Creator: CorelDRAW X6 -->
<svg xmlns="http://www.w3.org/2000/svg" xml:space="preserve" width="100%" height="100%" version="1.1" style="shape-rendering:geometricPrecision; text-rendering:geometricPrecision; image-rendering:optimizeQuality; fill-rule:evenodd; clip-rule:evenodd"
viewBox="0 0 500 500"
 xmlns:xlink="http://www.w3.org/1999/xlink">
 <defs>
  <style type="text/css">
   <![CDATA[
    .fil0 {fill:#202020}
   ]]>
  </style>
 </defs>
 <g id="Layer_x0020_1">
  <metadata id="CorelCorpID_0Corel-Layer"/>
  <path class="fil0" d="M300 95l105 105 -231 230 0 0 -63 22c-5,-15 -13,-28 -24,-39 -11,-11 -24,-19 -39,-24l22 -63 0 0 0 0 230 -231zm-207 362l-66 22c-5,2 -8,-1 -6,-6l22 -66c11,4 22,10 31,19 9,9 15,20 19,31zm381 -353l-78 -79c-7,-7 -19,-7 -26,0l-52 53 104 104 52 -52c8,-7 8,-19 0,-26zm-161 39c5,5 5,13 0,18l-182 182c-5,5 -13,5 -18,0 -5,-5 -5,-12 0,-17l183 -183c5,-5 12,-5 17,0zm44 44c5,5 5,12 0,17l-183 183c-5,5 -13,5 -17,0 -5,-5 -5,-13 0,-18l182 -182c5,-5 13,-5 18,0z"/>
 </g>
</svg>
